<svg width="104" height="104" viewBox="0 0 104 104" fill="none" xmlns="http://www.w3.org/2000/svg">
<path opacity="0.6" d="M62.2053 82.7328L62.5962 85.0709L36.7591 89.2142C36.7591 89.2142 32.0989 89.6211 28.6774 88.2227C24.7035 72.4757 49.5825 56.8271 56.0893 58.7355C59.1513 69.804 62.2053 82.7328 62.2053 82.7328Z" fill="#797163" fill-opacity="0.3"/>
<path opacity="0.6" d="M85.6951 62.4818L85.2748 64.9369L50.3464 60.124C50.3464 60.124 53.25 58.9659 50.3464 56.4002C51.8489 39.4029 83.5044 23.5029 89.2856 27.6367C88.4956 39.6765 85.6951 62.4818 85.6951 62.4818Z" fill="#797163" fill-opacity="0.3"/>
<path d="M44.9775 15.0454L89.635 19.5564L83.2787 63.5854C83.2787 63.5854 41.5198 59.0316 38.2599 58.5256C38.1653 49.2807 43.9539 19.2819 44.9861 15.0454H44.9775Z" fill="#FCF7CE" stroke="#977306" stroke-width="0.5" stroke-linecap="round" stroke-linejoin="round"/>
<path d="M49.0406 41.8686C49.0406 41.8686 51.9936 41.5558 55.4246 42.2829C59.0841 43.0575 62.7308 43.355 67.0342 43.3419C71.772 43.3273 76.9381 45.0155 76.9381 45.0155" stroke="#CAA91D" stroke-width="0.5" stroke-linecap="round" stroke-linejoin="round"/>
<path d="M49.8719 35.7339C49.8719 35.7339 54.2394 37.1236 59.0642 37.6406C63.8891 38.1576 69.0167 36.8045 77.6486 39.8668" stroke="#CAA91D" stroke-width="0.5" stroke-linecap="round" stroke-linejoin="round"/>
<path d="M78.355 34.6213C78.355 34.6213 74.9905 33.045 69.5687 32.9695C64.1469 32.894 60.4644 32.193 57.7097 31.5016C54.9551 30.8102 50.5283 30.9369 50.5283 30.9369" stroke="#CAA91D" stroke-width="0.5" stroke-linecap="round" stroke-linejoin="round"/>
<path d="M51.315 25.1541C55.3237 26.1866 56.4972 25.6586 62.9317 26.1638C70.42 26.7506 79.114 29.1394 79.114 29.1394" stroke="#CAA91D" stroke-width="0.5" stroke-linecap="round" stroke-linejoin="round"/>
<path d="M69.5225 49.8327C69.5225 49.8327 70.7372 49.5253 71.495 50.0907" stroke="#CAA91D" stroke-width="0.5" stroke-linecap="round" stroke-linejoin="round"/>
<path d="M48.3237 47.0952C48.3237 47.0952 53.668 47.1298 58.0459 48.6043C62.4238 50.0787 67.4021 49.9901 67.4021 49.9901" stroke="#CAA91D" stroke-width="0.5" stroke-linecap="round" stroke-linejoin="round"/>
<path d="M22.29 80.4659C22.29 80.4659 25.2955 88.9835 34.998 87.5585C33.6259 85.5797 30.7021 80.2297 30.7021 80.2297L22.29 80.4659Z" fill="#98D8CC" stroke="black" stroke-width="0.5" stroke-linecap="round" stroke-linejoin="round"/>
<path d="M15.0957 47.8932L56.9763 40.0433L65.6824 82.2163C65.6824 82.2163 49.0053 85.2129 36.8609 87.3546C30.6866 88.4457 29.6984 84.9116 29.5759 81.7684C26.6847 83.2505 23.0014 83.6495 21.9479 79.4558C18.975 67.5913 15.2509 50.955 15.0957 47.8932Z" fill="#D2F1D1" stroke="black" stroke-width="0.5" stroke-linecap="round" stroke-linejoin="round"/>
<path opacity="0.5" d="M15.0957 35.6446L19.1804 52.0001L26.788 48.9982L22.0083 33.0001L15.0957 35.6446Z" fill="#FBF9EE"/>
<path d="M15.0957 35.6446L19.1804 52.0001L26.788 48.9982L22.0083 33.0001L15.0957 35.6446Z" stroke="#ADA68D" stroke-width="0.5" stroke-linecap="round" stroke-linejoin="round"/>
<path d="M28.4419 74.0148C28.4419 74.0148 31.1693 72.7511 34.6943 72.3278C38.4537 71.8754 42.045 70.97 46.1643 69.5527C50.6993 67.9921 56.2006 67.9233 56.2006 67.9233" stroke="#51967D" stroke-width="0.5" stroke-linecap="round" stroke-linejoin="round"/>
<path d="M27.2363 67.8651C27.2363 67.8651 31.8749 67.771 36.6668 66.6914C41.4588 65.6118 45.9304 62.6414 55.2011 62.7579" stroke="#51967D" stroke-width="0.5" stroke-linecap="round" stroke-linejoin="round"/>
<path d="M54.1649 57.5013C54.1649 57.5013 50.4265 57.0892 45.2067 58.7868C39.9868 60.4843 36.2294 61.0147 33.3642 61.2514C30.499 61.4882 26.2986 63.0546 26.2986 63.0546" stroke="#51967D" stroke-width="0.5" stroke-linecap="round" stroke-linejoin="round"/>
<path d="M25.1655 57.2565C29.3437 56.9372 30.2959 56.0481 36.6263 54.4318C43.9931 52.5496 53.1035 52.0006 53.1035 52.0006" stroke="#51967D" stroke-width="0.5" stroke-linecap="round" stroke-linejoin="round"/>
<path d="M50.6667 74.9602C50.6667 74.9602 51.7303 74.2691 52.641 74.5636" stroke="#51967D" stroke-width="0.5" stroke-linecap="round" stroke-linejoin="round"/>
<path d="M29.4611 79.2569C29.4611 79.2569 34.5933 77.5455 39.2695 77.5292C43.9457 77.5129 48.6871 75.8028 48.6871 75.8028" stroke="#51967D" stroke-width="0.5" stroke-linecap="round" stroke-linejoin="round"/>
<path d="M91.7135 30.0582L61.7168 64.0225L65.7093 67.5433L95.706 33.5791L91.7135 30.0582Z" fill="#FEEB30" stroke="black" stroke-width="0.5" stroke-linecap="round" stroke-linejoin="round"/>
<path d="M65.7082 67.5518L57.004 73.3819L61.7152 64.0351L65.7082 67.5518Z" fill="#FCF7CE" stroke="black" stroke-width="0.5" stroke-linecap="round" stroke-linejoin="round"/>
<path d="M60.1263 71.2889L57.0046 73.3817L58.6962 70.0275L60.1263 71.2889Z" fill="black" stroke="black" stroke-width="0.5" stroke-linecap="round" stroke-linejoin="round"/>
<path opacity="0.5" d="M42.0287 23.3013L48.2119 45.163L40.7997 46.008L35.2428 26.0649L42.0287 23.3013Z" fill="#FBF9EE"/>
<path d="M41.9449 23.3132L48.3979 45.1821L40.7741 45.8704L35.2624 26.0182L41.9449 23.3132Z" stroke="#ADA68D" stroke-width="0.5" stroke-linecap="round" stroke-linejoin="round"/>
</svg>
